<svg xmlns="http://www.w3.org/2000/svg" width="253.87" height="35" viewBox="0 0 253.87 35"><rect class="svg__rect" x="0" y="0" width="0" height="35" fill="#667E86"/><rect class="svg__rect" x="0" y="0" width="253.87" height="35" fill="#181C49"/><path class="svg__text" d="" fill="#FFFFFF"/><path class="svg__text" d="M16.57 22L14.19 22L14.19 13.60L16.57 13.60L16.57 16.76L19.81 16.76L19.81 13.60L22.18 13.60L22.18 22L19.81 22L19.81 18.72L16.57 18.72L16.57 22ZM29.14 15.48L26.55 15.48L26.55 13.60L34.07 13.60L34.07 15.48L31.51 15.48L31.51 22L29.14 22L29.14 15.48ZM40.24 15.48L37.65 15.48L37.65 13.60L45.18 13.60L45.18 15.48L42.61 15.48L42.61 22L40.24 22L40.24 15.48ZM51.93 22L49.55 22L49.55 13.60L53.39 13.60Q54.53 13.60 55.37 13.98Q56.21 14.35 56.67 15.06Q57.13 15.76 57.13 16.71L57.13 16.71Q57.13 17.66 56.67 18.35Q56.21 19.05 55.37 19.42Q54.53 19.80 53.39 19.80L53.39 19.80L51.93 19.80L51.93 22ZM51.93 15.47L51.93 17.93L53.25 17.93Q53.98 17.93 54.35 17.61Q54.72 17.29 54.72 16.71L54.72 16.71Q54.72 16.12 54.35 15.80Q53.98 15.47 53.25 15.47L53.25 15.47L51.93 15.47ZM61.29 21.24L61.29 21.24L62.07 19.49Q62.63 19.86 63.38 20.09Q64.12 20.32 64.84 20.32L64.84 20.32Q66.21 20.32 66.21 19.64L66.21 19.64Q66.21 19.28 65.82 19.11Q65.43 18.93 64.57 18.74L64.57 18.74Q63.62 18.53 62.98 18.30Q62.35 18.06 61.89 17.55Q61.44 17.03 61.44 16.16L61.44 16.16Q61.44 15.39 61.86 14.77Q62.28 14.15 63.11 13.79Q63.95 13.43 65.15 13.43L65.15 13.43Q65.98 13.43 66.78 13.62Q67.59 13.80 68.21 14.17L68.21 14.17L67.47 15.93Q66.27 15.28 65.14 15.28L65.14 15.28Q64.43 15.28 64.11 15.49Q63.79 15.70 63.79 16.04L63.79 16.04Q63.79 16.37 64.17 16.54Q64.56 16.71 65.40 16.89L65.40 16.89Q66.37 17.10 67.00 17.33Q67.63 17.56 68.09 18.07Q68.55 18.58 68.55 19.46L68.55 19.46Q68.55 20.21 68.13 20.83Q67.71 21.44 66.87 21.80Q66.03 22.17 64.83 22.17L64.83 22.17Q63.81 22.17 62.85 21.92Q61.89 21.67 61.29 21.24ZM72.61 20.75L72.61 20.75Q72.61 20.15 73.00 19.78Q73.39 19.41 73.98 19.41L73.98 19.41Q74.58 19.41 74.96 19.78Q75.35 20.15 75.35 20.75L75.35 20.75Q75.35 21.34 74.96 21.72Q74.57 22.11 73.98 22.11L73.98 22.11Q73.40 22.11 73.01 21.72Q72.61 21.34 72.61 20.75ZM72.61 16.73L72.61 16.73Q72.61 16.13 73.00 15.76Q73.39 15.39 73.98 15.39L73.98 15.39Q74.58 15.39 74.96 15.76Q75.35 16.13 75.35 16.73L75.35 16.73Q75.35 17.32 74.96 17.70Q74.57 18.09 73.98 18.09L73.98 18.09Q73.40 18.09 73.01 17.70Q72.61 17.32 72.61 16.73ZM80.75 23.20L78.72 23.20L82.68 11.90L84.71 11.90L80.75 23.20ZM89.21 23.20L87.18 23.20L91.14 11.90L93.17 11.90L89.21 23.20ZM96.50 17.80L96.50 17.80Q96.50 16.55 97.10 15.55Q97.71 14.56 98.77 14.00Q99.83 13.43 101.16 13.43L101.16 13.43Q102.49 13.43 103.56 14.00Q104.62 14.56 105.23 15.55Q105.83 16.55 105.83 17.80L105.83 17.80Q105.83 19.05 105.23 20.04Q104.62 21.04 103.56 21.60Q102.50 22.17 101.16 22.17L101.16 22.17Q99.83 22.17 98.77 21.60Q97.71 21.04 97.10 20.04Q96.50 19.05 96.50 17.80ZM98.90 17.80L98.90 17.80Q98.90 18.51 99.20 19.05Q99.50 19.60 100.02 19.90Q100.53 20.20 101.16 20.20L101.16 20.20Q101.80 20.20 102.32 19.90Q102.83 19.60 103.13 19.05Q103.43 18.51 103.43 17.80L103.43 17.80Q103.43 17.09 103.13 16.54Q102.83 16 102.32 15.70Q101.80 15.40 101.16 15.40L101.16 15.40Q100.53 15.40 100.01 15.70Q99.50 16 99.20 16.54Q98.90 17.09 98.90 17.80ZM112.92 22L110.56 22L110.56 13.60L112.92 13.60L112.92 17.09L116.17 13.60L118.78 13.60L115.36 17.32L118.97 22L116.21 22L113.80 18.95L112.92 19.90L112.92 22ZM125.45 22L123.07 22L123.07 13.60L126.92 13.60Q128.05 13.60 128.89 13.98Q129.73 14.35 130.19 15.06Q130.65 15.76 130.65 16.71L130.65 16.71Q130.65 17.66 130.19 18.35Q129.73 19.05 128.89 19.42Q128.05 19.80 126.92 19.80L126.92 19.80L125.45 19.80L125.45 22ZM125.45 15.47L125.45 17.93L126.77 17.93Q127.50 17.93 127.87 17.61Q128.25 17.29 128.25 16.71L128.25 16.71Q128.25 16.12 127.87 15.80Q127.50 15.47 126.77 15.47L126.77 15.47L125.45 15.47ZM139.33 20.39L134.89 20.39L134.89 18.84L138.65 13.60L141.11 13.60L137.70 18.51L139.40 18.51L139.40 17.08L141.64 17.08L141.64 18.51L142.89 18.51L142.89 20.39L141.64 20.39L141.64 22L139.33 22L139.33 20.39ZM146.77 20.75L146.77 20.75Q146.77 20.15 147.16 19.78Q147.55 19.41 148.14 19.41L148.14 19.41Q148.74 19.41 149.12 19.78Q149.50 20.15 149.50 20.75L149.50 20.75Q149.50 21.34 149.11 21.72Q148.72 22.11 148.14 22.11L148.14 22.11Q147.56 22.11 147.16 21.72Q146.77 21.34 146.77 20.75ZM156.49 22L154.16 22L154.16 13.60L156.12 13.60L159.83 18.07L159.83 13.60L162.15 13.60L162.15 22L160.20 22L156.49 17.52L156.49 22ZM174.06 22L167.32 22L167.32 13.60L173.91 13.60L173.91 15.44L169.67 15.44L169.67 16.85L173.40 16.85L173.40 18.63L169.67 18.63L169.67 20.17L174.06 20.17L174.06 22ZM180.66 15.48L178.07 15.48L178.07 13.60L185.60 13.60L185.60 15.48L183.03 15.48L183.03 22L180.66 22L180.66 15.48ZM192.05 22L189.32 13.60L191.77 13.60L193.46 18.96L195.24 13.60L197.42 13.60L199.12 19.01L200.88 13.60L203.15 13.60L200.42 22L197.88 22L196.27 16.89L194.59 22L192.05 22ZM207.23 17.80L207.23 17.80Q207.23 16.55 207.83 15.55Q208.44 14.56 209.50 14.00Q210.56 13.43 211.89 13.43L211.89 13.43Q213.22 13.43 214.29 14.00Q215.35 14.56 215.96 15.55Q216.56 16.55 216.56 17.80L216.56 17.80Q216.56 19.05 215.96 20.04Q215.35 21.04 214.29 21.60Q213.23 22.17 211.89 22.17L211.89 22.17Q210.56 22.17 209.50 21.60Q208.44 21.04 207.83 20.04Q207.23 19.05 207.23 17.80ZM209.63 17.80L209.63 17.80Q209.63 18.51 209.93 19.05Q210.23 19.60 210.75 19.90Q211.26 20.20 211.89 20.20L211.89 20.20Q212.53 20.20 213.05 19.90Q213.56 19.60 213.86 19.05Q214.16 18.51 214.16 17.80L214.16 17.80Q214.16 17.09 213.86 16.54Q213.56 16 213.05 15.70Q212.53 15.40 211.89 15.40L211.89 15.40Q211.26 15.40 210.74 15.70Q210.23 16 209.93 16.54Q209.63 17.09 209.63 17.80ZM223.67 22L221.29 22L221.29 13.60L225.14 13.60Q226.28 13.60 227.12 13.98Q227.96 14.35 228.41 15.06Q228.87 15.76 228.87 16.71L228.87 16.71Q228.87 17.62 228.44 18.30Q228.01 18.98 227.22 19.36L227.22 19.36L229.03 22L226.49 22L224.97 19.77L223.67 19.77L223.67 22ZM223.67 15.47L223.67 17.93L224.99 17.93Q225.72 17.93 226.10 17.61Q226.47 17.29 226.47 16.71L226.47 16.71Q226.47 16.12 226.10 15.79Q225.72 15.47 224.99 15.47L224.99 15.47L223.67 15.47ZM236.01 22L233.66 22L233.66 13.60L236.01 13.60L236.01 17.09L239.26 13.60L241.88 13.60L238.45 17.32L242.06 22L239.30 22L236.90 18.95L236.01 19.90L236.01 22Z" fill="#FFFFFF" x="39"/></svg>